<?xml version="1.0" encoding="utf-8"?>
<!-- Generator: Adobe Illustrator 27.3.1, SVG Export Plug-In . SVG Version: 6.00 Build 0)  -->
<svg version="1.1" id="Layer_6" xmlns="http://www.w3.org/2000/svg" xmlns:xlink="http://www.w3.org/1999/xlink" x="0px" y="0px"
	 viewBox="0 0 595.3 170.1" style="enable-background:new 0 0 595.3 170.1;" xml:space="preserve">
<style type="text/css">
	.st0{fill:#078013;}
	.st1{fill:#2CB446;}
</style>
<g id="Layer_5">
	<g>
		<path d="M285.3,108h32.4c4.2,0,6.3,1.2,6.3,3.7c0,2.3-2,3.5-6.1,3.5H275c-10.7,0-16-4.3-16-12.8V45.2c0-8.8,5.3-13.2,16-13.2h42.9
			c4.1,0,6.1,1.2,6.1,3.7c0,2.6-2.1,3.9-6.3,3.9h-32.4c-8.3,0-12.5,3.4-12.5,10.1V58c0,6.9,4,10.3,12.1,10.3h32.6
			c4.4,0,6.5,1.1,6.5,3.3c0,2.7-2.1,4.1-6.3,4.1h-32.8c-8,0-12.1,3.4-12.1,10.3v12.4C272.8,104.8,276.9,108,285.3,108z"/>
		<path d="M350.8,75.6c-11.3,0-17-4.3-17-13V45.4c0-8.9,5.3-13.4,16-13.4H391c5.3,0,7.9,1.4,7.9,4.1c0,2.3-2.6,3.5-7.9,3.5h-32.3
			c-7.4,0-11.1,3.9-11.1,11.6V56c0,8.1,3.6,12.2,10.9,12.2h23.3c11.3,0,17,4.3,17,13v20.9c0,8.7-5.5,13-16.4,13h-41
			c-5.1,0-7.7-1.2-7.7-3.7c0-2.3,2.6-3.5,7.9-3.5h32.6c7.1,0,10.7-3.4,10.7-10.3v-9.1c0-8.7-3.8-13-11.3-13H350.8z"/>
		<path d="M243.4,43.6c1.3,1.4,2.4,3.2,3.2,5.3c0.8,2.1,1.2,4.7,1.2,7.7v34.5c0,3.2-0.4,5.9-1.2,8.1c-0.8,2.2-1.8,3.9-3.2,5.2
			l-6.7,7c-1.3,1.2-3.2,2.1-5.5,2.7c-2.4,0.6-5,1-7.9,1h-24.5c-10.7,0-16-4.9-16-14.7V47.1c0-10.1,5.3-15.1,16-15.1h23.7
			c6.3,0.4,10.9,1.7,13.7,4.1l3.6,3.7L243.4,43.6z M208.2,39.5c-7.8,0-11.7,3.7-11.7,11.1V97c0,7.4,4,11.1,11.9,11.1h4.6
			c5.9,0.1,10.4-1,13.5-3.5l2.8-2.3c3.2-3.4,4.7-7.4,4.7-12V57.4c-0.3-2.1-0.8-4.1-1.6-6c-0.8-1.9-2-3.8-3.8-5.6l-2-1.9
			c-1.6-1.4-3.4-2.4-5.5-2.9c-2.1-0.5-4.4-1-6.9-1.4H208.2z"/>
		<path d="M429.6,108.6h20c5,0,7.5,1.2,7.5,3.5c0,2.1-2.4,3.1-7.1,3.1h-24.7c-10.3,0-15.4-4.7-15.4-14.2V68.7c0-9.3,5.3-14,15.8-14
			h16.4c4.9,0,8.6,1,11.2,3c2.6,2,3.9,4.9,3.9,8.6v11.7c0,4.8-1.3,8.2-3.9,10.3c-2.6,2.1-6.3,3.1-11.2,3.1H430c-4,0-5.9,2.9-5.9,8.7
			C424.1,105.8,425.9,108.6,429.6,108.6z M424.1,71.1v4c0,6.5,3.2,9.7,9.7,9.7c6.1,0,9.1-3.2,9.1-9.7v-4c0-6.5-3-9.7-9.1-9.7
			C427.3,61.4,424.1,64.6,424.1,71.1z"/>
		<path d="M514.9,68.3v61.5c0,6.1-2.4,9.1-7.1,9.1c-4.6,0-6.9-3.4-6.9-10.1v-3.5c0-6.7-3.9-10.1-11.7-10.1h-5.9
			c-5.3,0-9.2-1-11.8-3.1c-2.6-2.1-3.9-5.6-3.9-10.5V68.3c0-4.3,1.3-7.6,3.9-10c2.6-2.4,6.5-3.6,11.8-3.6h16.6c5,0,8.8,1.2,11.3,3.6
			C513.6,60.7,514.9,64,514.9,68.3z M482,96.6c0,8,2.6,12,7.9,12h2.6c5.5,0,8.3-3.9,8.3-11.8V73.9c0-8.3-2.6-12.4-7.9-12.4h-2.8
			c-5.4,0-8.1,3.9-8.1,11.6V96.6z"/>
		<polygon class="st0" points="593.2,83.6 593.2,77.7 593.2,71.7 580.8,59.3 581,93.7 		"/>
		<path class="st0" d="M541.3,136.7l-0.1-42.5l-11.9,11.5c-0.3,0.3-0.5,0.7-0.5,1.1l0.1,11.3c0,1,0.3,2,1,2.8L541.3,136.7z"/>
		<path class="st1" d="M593.1,131.3c0-3.4-3.8-6.1-7.6-6.1l-46.3,0.1c-2.6-0.2-5.1-1.4-7.1-3.6c-2.1-2.3-3.1-5.4-3.2-8.4l0,6.6
			c0.1,4.9,1.8,9.7,5.2,13.4c3.7,4.1,8.6,6.1,13.4,5.8l38,0c4.1,0,7.6-2.7,7.6-6.1V131.3z"/>
		<g>
			<path class="st1" d="M590,84.9c-2,2-4.5,3-7.1,3.2l-22.5,0l0,0l-13,0c-4.8-0.2-9.7,1.5-13.4,5.1c-3.3,3.3-5.1,7.6-5.2,11.9l0,6
				c0.1-2.7,1.1-5.4,3.2-7.5c2-2,4.5-3,7.1-3.2l25.6,0l0,0l9.9,0c4.8,0.2,9.7-1.5,13.4-5.1c3.3-3.3,5.1-7.6,5.2-11.9l0-6
				C593.1,80.2,592.1,82.9,590,84.9z"/>
			<path class="st1" d="M593.2,71.7c-0.1-4.3-1.8-8.6-5.2-11.9c-3.7-3.7-8.6-5.4-13.4-5.1l-39.2,0c-3,0-6.6,2.5-6.6,5.5v1.4
				c0,3,3.2,5.5,6.6,5.5l47.5,0c2.6,0.2,5.1,1.3,7.1,3.2c2.1,2.1,3.1,4.7,3.2,7.5L593.2,71.7z"/>
		</g>
		<g>
			<path class="st1" d="M61.9,39.6H48.4c-7.9,0-11.9,4.3-11.9,12.8V58c0,7.5,3.9,11.3,11.7,11.3h13.9C70,69.2,74,64.7,74,55.7V50
				C74,43,69.9,39.6,61.9,39.6z"/>
			<path class="st1" d="M150.9,3.2H16.8C8.6,3.2,2,9.8,2,18v134.1c0,8.2,6.6,14.8,14.8,14.8h134.1c8.2,0,14.8-6.6,14.8-14.8V18
				C165.7,9.8,159,3.2,150.9,3.2z M87.8,63c0,9.2-5.1,13.8-15.4,13.8H47.6c-7.4,0-11.1,3-11.1,9.1v19c0,6.9-2.3,10.3-6.9,10.3
				c-4.7,0-7.1-3.2-7.1-9.5l0.2-59.6c0-9.4,5.3-14.2,16-14.2h34c10,0,15,4.3,15,13V63z M145.2,124.5c0,9.1-4.6,14.6-13.7,14.6h-26.9
				c-1.8,0-3.2-0.2-4.1-0.7c-0.9-0.5-1.3-1.4-1.3-2.8c0-2.3,2.1-3.5,6.3-3.5H126c4.9,0,7.3-3.6,7.3-8.8c0-5.4-2.8-8.1-8.3-8.1h-11.9
				h-2c-9,0-13.5-4.4-13.5-13.2V63.7c0-5.9,2.3-8.9,6.9-8.9c5,0,7.5,3.4,7.5,10.1v32.5c0,7.4,2.7,11.1,8.1,11.1h2.8
				c5.3,0,7.9-3.7,7.9-11.3V64.6c0-6.6,2.4-9.9,7.3-9.9c4.6,0,6.9,3.2,6.9,9.7V124.5z"/>
		</g>
	</g>
</g>
<g id="Layer_3">
</g>
<g id="Layer_4">
</g>
</svg>
